<?xml version="1.0" standalone="no"?>
<!DOCTYPE svg PUBLIC "-//W3C//DTD SVG 20010904//EN"
 "http://www.w3.org/TR/2001/REC-SVG-20010904/DTD/svg10.dtd">
<svg version="1.0" xmlns="http://www.w3.org/2000/svg"
 width="383.000000pt" height="383.000000pt" viewBox="0 0 383.000000 383.000000"
 preserveAspectRatio="xMidYMid meet">
<metadata>
Created by potrace 1.14, written by Peter Selinger 2001-2017
</metadata>
<g transform="translate(0.000000,383.000000) scale(0.100000,-0.100000)"
fill="#000000" stroke="none">
<path d="M1935 3773 c-154 -10 -387 -66 -537 -130 -525 -224 -895 -655 -1034
-1204 -14 -56 -28 -122 -31 -148 -9 -73 -16 -63 -10 14 6 74 7 81 38 220 26
114 34 301 15 370 -23 87 -90 205 -107 188 -6 -6 -3 -25 6 -47 9 -21 17 -58
19 -84 3 -45 -1 -70 -29 -202 -10 -47 -14 -69 -29 -177 -24 -168 -25 -184 -15
-252 10 -63 34 -121 71 -171 16 -22 20 -49 23 -170 5 -140 8 -177 18 -230 2
-14 7 -45 11 -70 5 -45 5 -44 -13 13 -11 32 -24 97 -31 145 -12 91 -19 144
-25 171 -25 125 -75 234 -140 308 -46 52 -111 100 -122 90 -3 -4 11 -29 32
-57 40 -54 59 -105 69 -185 25 -192 67 -389 100 -465 24 -57 73 -118 125 -155
30 -22 52 -46 56 -63 20 -79 122 -300 177 -382 17 -24 22 -38 13 -30 -26 22
-87 116 -134 210 -122 239 -250 364 -414 404 -41 10 -34 -15 14 -44 54 -33 96
-86 154 -195 63 -119 149 -257 199 -323 60 -77 136 -126 228 -146 16 -4 45
-29 76 -68 55 -69 195 -208 255 -253 21 -15 35 -30 33 -32 -6 -6 -81 46 -131
92 -257 233 -360 289 -538 294 -62 2 -77 -1 -77 -12 0 -10 15 -18 42 -22 64
-11 130 -48 200 -114 116 -107 292 -242 366 -278 68 -34 80 -37 165 -37 87 -1
96 -3 143 -33 58 -38 198 -104 304 -145 53 -20 65 -28 40 -24 -20 2 -78 21
-130 41 -253 97 -320 116 -430 120 -87 2 -240 -43 -240 -72 0 -10 6 -12 23 -7
71 23 142 10 302 -53 315 -126 455 -147 581 -87 51 24 52 24 125 9 89 -19 201
-29 326 -30 63 0 85 -3 70 -9 -12 -4 -119 -8 -237 -8 -239 1 -314 -9 -415 -57
-62 -29 -165 -114 -153 -126 4 -4 33 6 65 21 l58 29 225 1 c246 1 329 7 405
29 60 17 138 67 168 106 15 21 29 29 51 29 50 0 203 36 317 73 517 170 937
585 1109 1097 39 115 56 187 75 305 17 103 22 351 10 460 -17 157 -88 425
-112 425 -17 0 -16 -8 3 -61 19 -56 63 -229 70 -277 21 -150 26 -389 10 -497
-57 -388 -221 -724 -487 -996 -200 -205 -419 -340 -697 -432 -122 -40 -125
-40 -185 -28 -78 15 -158 52 -267 122 -240 154 -377 196 -534 164 l-61 -13
-80 82 c-49 49 -103 93 -140 113 -61 32 -163 63 -208 63 -18 0 -27 7 -31 26
-13 49 -78 172 -117 219 -43 52 -115 111 -171 140 -36 19 -37 19 -37 84 -1
148 -46 278 -131 376 -28 33 -39 53 -34 64 21 49 51 185 53 243 2 61 -21 189
-39 213 -17 24 -17 44 0 63 38 40 110 157 129 207 32 84 39 143 32 249 -1 15
-4 16 -16 6 -8 -7 -15 -20 -15 -29 0 -64 -39 -129 -147 -247 -61 -67 -183
-219 -244 -306 -15 -21 -16 -16 -3 72 77 555 433 1050 939 1307 208 105 504
178 738 182 34 1 47 5 45 13 -4 12 -56 16 -143 11z m-1573 -998 c2 -82 -3
-118 -44 -320 -19 -97 -28 -169 -26 -202 3 -29 3 -53 1 -53 -2 0 -13 21 -25
47 -28 64 -29 218 -3 353 3 14 7 39 9 55 3 17 14 72 25 122 12 51 21 114 22
140 l1 48 19 -60 c11 -33 20 -91 21 -130z m374 -217 c-27 -95 -78 -168 -247
-355 -41 -45 -91 -110 -112 -145 -30 -50 -37 -58 -37 -37 0 40 29 128 57 173
35 57 155 204 248 306 42 47 82 96 88 109 18 38 20 6 3 -51z m-576 -320 c57
-87 89 -204 115 -413 9 -75 33 -172 51 -206 8 -17 13 -33 11 -35 -7 -7 -65 63
-87 106 -19 37 -57 162 -66 218 -2 15 -9 50 -14 77 -6 28 -13 68 -15 90 -3 22
-7 51 -10 65 -2 14 -7 45 -10 70 -4 24 -11 52 -16 62 -5 9 -9 19 -9 22 0 16
14 0 50 -56z m431 -53 c-1 -58 -12 -92 -95 -307 -46 -119 -97 -292 -90 -302 2
-4 0 -3 -5 1 -12 12 -51 217 -56 299 -3 52 30 136 82 208 58 82 147 175 157
166 5 -5 8 -34 7 -65z m41 -132 c0 -37 -5 -90 -12 -118 -6 -27 -13 -58 -15
-68 -2 -10 -31 -84 -63 -165 -58 -143 -86 -236 -85 -277 1 -13 -5 -7 -14 15
-34 77 2 242 108 507 27 66 49 123 49 126 0 15 21 59 26 54 3 -3 6 -36 6 -74z
m-1 -402 c7 -25 12 -70 12 -100 -5 -342 -2 -461 13 -516 10 -35 -68 86 -122
191 -52 100 -53 103 -49 175 4 78 22 147 71 266 29 72 29 72 46 50 9 -12 22
-42 29 -66z m82 -106 c24 -73 33 -148 31 -255 -5 -217 -3 -307 6 -345 11 -50
7 -54 -18 -18 -59 83 -71 195 -63 583 1 58 -1 114 -4 125 -4 11 2 6 12 -10 11
-17 27 -53 36 -80z m-467 -14 c69 -67 95 -106 178 -261 78 -143 96 -171 145
-223 l36 -38 -40 18 c-64 29 -90 50 -137 111 -56 73 -113 164 -190 305 -34 62
-73 127 -87 146 l-26 35 33 -20 c19 -10 58 -43 88 -73z m582 -331 c34 -37 55
-83 95 -206 42 -131 110 -306 138 -352 10 -18 19 -36 19 -38 0 -10 -132 98
-198 161 -35 33 -70 76 -79 95 -20 49 -38 155 -37 220 1 30 2 81 3 114 1 64 5
65 59 6z m131 -93 c56 -74 92 -152 145 -315 46 -143 83 -229 115 -267 16 -19
16 -19 -14 -1 -45 28 -72 55 -105 105 -34 54 -116 258 -155 386 -15 50 -36
107 -47 128 l-19 38 20 -11 c12 -6 39 -34 60 -63z m-472 -154 c66 -21 150 -76
238 -153 143 -126 209 -178 260 -205 l50 -26 -52 5 c-101 9 -216 82 -441 280
-57 50 -114 97 -128 104 -51 27 -16 25 73 -5z m713 -138 c43 -28 77 -64 162
-175 74 -95 185 -221 230 -258 16 -13 27 -26 25 -28 -5 -6 -194 60 -261 91
-84 39 -143 116 -195 261 -16 44 -32 94 -36 112 -7 32 -6 34 16 27 13 -5 40
-18 59 -30z m153 -41 c68 -44 118 -97 219 -226 54 -69 123 -149 154 -177 63
-58 51 -68 -33 -26 -64 32 -168 136 -291 290 -52 66 -111 137 -131 158 l-36
39 40 -17 c22 -9 57 -27 78 -41z m506 -181 c77 -26 131 -54 244 -125 126 -80
208 -122 257 -133 l35 -8 -32 -7 c-66 -15 -136 2 -248 58 -61 30 -255 143
-333 194 -15 10 -36 22 -47 26 -11 5 -27 12 -35 16 -31 13 115 -6 159 -21z
m-165 -12 c29 -10 79 -35 110 -55 172 -110 369 -215 405 -217 10 0 6 -4 -8
-10 -13 -5 -89 -8 -170 -6 -144 3 -147 3 -203 35 -58 33 -166 141 -226 226
l-33 46 36 0 c19 0 59 -8 89 -19z m-519 -150 c60 -22 152 -55 202 -75 51 -20
121 -39 155 -43 l63 -6 -35 -13 c-100 -36 -218 -10 -572 125 -59 23 -117 42
-130 42 -16 1 -13 4 12 10 73 16 188 1 305 -40z m1010 -207 c-32 -26 -99 -53
-157 -65 -29 -6 -171 -12 -316 -13 l-263 -2 45 23 c95 48 171 57 476 54 80 -1
159 3 175 8 48 15 63 13 40 -5z"/>
<path d="M2354 3744 c-4 -17 -2 -29 7 -35 19 -12 25 -11 43 7 12 12 13 20 6
35 -16 28 -48 24 -56 -7z"/>
<path d="M2785 3610 c-13 -41 36 -63 59 -27 7 11 6 20 -3 31 -19 22 -48 20
-56 -4z"/>
<path d="M3167 3366 c-11 -28 4 -47 32 -44 20 2 26 8 26 28 0 20 -6 26 -26 28
-17 2 -29 -3 -32 -12z"/>
<path d="M3485 3036 c-22 -16 -15 -50 11 -54 25 -4 47 19 38 41 -8 22 -29 28
-49 13z"/>
<path d="M1708 2934 c-182 -27 -323 -119 -413 -269 -133 -223 -100 -507 80
-691 107 -109 205 -156 356 -171 59 -5 192 11 218 28 11 7 6 8 -19 2 -19 -4
-71 -8 -115 -8 -69 0 -89 5 -145 31 -191 91 -325 310 -334 546 -8 225 79 400
240 483 55 28 67 30 164 30 95 0 110 -3 162 -28 72 -36 153 -109 204 -184 21
-32 41 -61 44 -65 3 -4 5 28 5 72 0 74 -2 81 -30 110 -59 63 -176 114 -270
119 -27 2 -52 4 -55 5 -3 2 -44 -3 -92 -10z"/>
<path d="M1977 2388 c-9 -5 -12 -148 -12 -565 l0 -558 63 -3 62 -3 1 38 c0 21
0 162 0 313 0 152 3 280 7 286 4 5 23 22 42 37 l36 26 34 -30 c37 -31 66 -41
169 -58 67 -11 101 -33 127 -83 15 -29 39 -126 48 -196 27 -209 128 -314 317
-327 l64 -5 -40 19 c-62 28 -103 77 -155 186 -26 55 -68 143 -93 195 -55 113
-93 159 -165 198 l-54 29 38 8 c79 14 157 72 189 140 26 55 25 147 -3 201 -43
85 -167 142 -326 150 -154 8 -337 9 -349 2z m431 -38 c63 -27 118 -87 133
-144 13 -48 5 -149 -16 -199 -19 -46 -86 -104 -130 -113 -53 -10 -113 3 -156
34 -44 31 -56 52 -37 67 14 11 20 177 6 169 -5 -3 -8 -11 -8 -19 0 -7 -10 -39
-22 -70 -21 -56 -22 -57 -35 -32 -25 48 -44 143 -48 239 l-5 98 133 -3 c112
-3 140 -7 185 -27z m-268 -347 c0 -7 -11 -25 -24 -40 l-25 -28 1 105 0 105 24
-65 c13 -36 24 -70 24 -77z"/>
</g>
</svg>
