<?xml version="1.0" standalone="no"?>
<!DOCTYPE svg PUBLIC "-//W3C//DTD SVG 20010904//EN"
 "http://www.w3.org/TR/2001/REC-SVG-20010904/DTD/svg10.dtd">
<svg version="1.0" xmlns="http://www.w3.org/2000/svg"
 width="512.000000pt" height="512.000000pt" viewBox="0 0 512.000000 512.000000"
 preserveAspectRatio="xMidYMid meet">

<g transform="translate(0.000000,512.000000) scale(0.100000,-0.100000)"
fill="#000000" stroke="none">
<path d="M2360 5114 c-694 -65 -1301 -371 -1738 -878 -324 -375 -524 -810
-598 -1301 -25 -167 -26 -524 -1 -685 42 -274 118 -519 237 -764 l51 -104
-151 -687 c-83 -378 -150 -689 -148 -690 2 -2 21 0 43 5 22 5 335 77 695 159
l655 149 95 -43 c253 -114 527 -188 798 -216 168 -17 526 -7 675 20 456 81
846 256 1197 537 109 88 296 275 384 384 303 379 495 838 546 1304 14 129 14
424 0 551 -85 765 -526 1458 -1199 1885 -269 170 -632 301 -981 355 -102 15
-464 28 -560 19z m406 -405 c470 -46 911 -243 1249 -558 375 -350 610 -792
680 -1283 21 -152 21 -426 0 -574 -57 -389 -218 -757 -462 -1056 -74 -89 -235
-249 -323 -319 -301 -241 -684 -404 -1068 -454 -131 -17 -425 -20 -539 -5
-250 34 -480 103 -701 210 l-143 70 -461 -105 c-254 -58 -462 -104 -463 -103
-1 2 42 201 96 443 54 242 98 450 98 462 1 12 -15 50 -35 84 -229 391 -331
860 -280 1297 135 1162 1184 2005 2352 1891z"/>
<path d="M1662 3679 c-52 -26 -134 -115 -185 -201 -105 -176 -114 -403 -26
-627 107 -270 430 -682 719 -917 223 -182 488 -310 820 -396 147 -39 297 -42
400 -9 120 38 267 143 314 224 50 87 78 283 46 322 -15 18 -428 224 -504 251
-77 28 -88 23 -169 -78 -169 -213 -185 -227 -245 -207 -48 15 -223 102 -287
142 -194 120 -396 328 -520 534 -51 85 -48 98 41 193 46 49 86 104 102 138
l25 56 -20 56 c-11 30 -58 147 -104 259 -63 153 -93 214 -120 243 l-36 38
-104 0 c-86 0 -112 -4 -147 -21z"/>
</g>
</svg>
